{"title":"Jism 2 (Hindi) 2012 DVDSCR XviD-NRG","uid":7522879,"size":845166287,"categoryP":"video","categoryS":"movies","magnet":"?xt=urn:btih:0c4768280e68b9bedf8b854c08cc01a6f79a64db&amp;dn=Jism+2+%28Hindi%29+2012+DVDSCR+XviD-NRG&amp;tr=udp%3A%2F%2Ftracker.openbittorrent.com%3A80&amp;tr=udp%3A%2F%2Fopen.demonii.com%3A1337&amp;tr=udp%3A%2F%2Ftracker.coppersurfer.tk%3A6969&amp;tr=udp%3A%2F%2Fexodus.desync.com%3A6969","seeders":0,"leechers":1,"uploader":"TorrentXXLS","files":-1,"time":1344684501,"description":"Jism 2 (Hindi) 2012 DVDSCR XviD-NRG\n\nJism 2 Movie Information, Screenshots, Cast, YouTube Trailer &amp; More at:\n &lt;a href=&quot;\nhttp://iwatchonlinemovie.in/jism-2-movie/&quot; rel=&quot;nofollow&quot; target=&quot;_NEW&quot;&gt;\nhttp://iwatchonlinemovie.in/jism-2-movie/&lt;/a&gt;\n\nScreenshots: &lt;a href=&quot;\nhttp://img859.imageshack.us/img859/1680/vlcsnap2012081111h08m38.png&quot; rel=&quot;nofollow&quot; target=&quot;_NEW&quot;&gt;\nhttp://img859.imageshack.us/img859/1680/vlcsnap2012081111h08m38.png&lt;/a&gt; &lt;a href=&quot;\nhttp://img717.imageshack.us/img717/4719/vlcsnap2012081111h07m50.png&quot; rel=&quot;nofollow&quot; target=&quot;_NEW&quot;&gt;\nhttp://img717.imageshack.us/img717/4719/vlcsnap2012081111h07m50.png&lt;/a&gt; &lt;a href=&quot;\nhttp://img401.imageshack.us/img401/6826/vlcsnap2012081111h07m38.png&quot; rel=&quot;nofollow&quot; target=&quot;_NEW&quot;&gt;\nhttp://img401.imageshack.us/img401/6826/vlcsnap2012081111h07m38.png&lt;/a&gt;\n\nSynopsis:\nIt is the story of a porn star who is in search of an enduring love in her life. She is hired by an Intelligence officer to trap a dreaded assassin. The film is an erotica, but also has emotional and intellectual elements to it. It gives a new angle to the life journey of a porn star. Cast: Randeep Hooda, Sunny Leone; Dir: Pooja Bhatt.\n\nNFO:\nFormat                                   : AVI\nFormat/Info                              : Audio Video Interleave\nFile size                                : 805 MiB\nDuration                                 : 2h 5mn\nOverall bit rate                         : 895 Kbps\n\nVideo\nID                                       : 0\nFormat                                   : MPEG-4 Visual\nFormat profile                           : Advanced Simple@L5\nFormat settings, BVOP                    : 2\nFormat settings, QPel                    : Yes\nFormat settings, GMC                     : 3 warppoints\nFormat settings, Matrix                  : Default (H.263)\nCodec ID                                 : XVID\nCodec ID/Hint                            : XviD\nDuration                                 : 2h 5mn\nBit rate                                 : 759 Kbps\nWidth                                    : 656 pixels\nHeight                                   : 256 pixels\nDisplay aspect ratio                     : 2.563\nFrame rate                               : 25.000 fps\nColor space                              : YUV\nChroma subsampling                       : 4:2:0\nBit depth                                : 8 bits\nScan type                                : Progressive\nCompression mode                         : Lossy\nBits/(Pixel*Frame)                       : 0.181\nStream size                              : 683 MiB (85%)\nWriting library                          : XviD 1.2.1 (UTC 2008-12-04)\n\nAudio\nID                                       : 1\nFormat                                   : AC-3\nFormat/Info                              : Audio Coding 3\nMode extension                           : CM (complete main)\nFormat settings, Endianness              : Big\nCodec ID                                 : 2000\nDuration                                 : 2h 5mn\nBit rate mode                            : Constant\nBit rate                                 : 128 Kbps\nChannel(s)                               : 2 channels\nChannel positions                        : Front: L R\nSampling rate                            : 48.0 KHz\nBit depth                                : 16 bits\nCompression mode                         : Lossy\nStream size                              : 115 MiB (14%)\nAlignment                                : Aligned on interleaves\nInterleave, duration                     : 64 ms (1.60 video frames)\nInterleave, preload duration             : 192 ms\n","torrent":{"xt":"urn:btih:0c4768280e68b9bedf8b854c08cc01a6f79a64db","amp;dn":"Jism+2+%28Hindi%29+2012+DVDSCR+XviD-NRG","amp;tr":["udp%3A%2F%2Ftracker.openbittorrent.com%3A80","udp%3A%2F%2Fopen.demonii.com%3A1337","udp%3A%2F%2Ftracker.coppersurfer.tk%3A6969","udp%3A%2F%2Fexodus.desync.com%3A6969"],"infoHash":"0c4768280e68b9bedf8b854c08cc01a6f79a64db","infoHashBuffer":{"type":"Buffer","data":[12,71,104,40,14,104,185,190,223,139,133,76,8,204,1,166,247,154,100,219]},"announce":[],"urlList":[]}}